<svg width="69" height="20" fill="none" xmlns="http://www.w3.org/2000/svg"><g clip-path="url(#a)"><path d="M56.167 12.362c0-3.023 1.92-5.148 4.652-5.148 2.73 0 4.682 2.124 4.682 5.148 0 3.024-1.95 5.028-4.682 5.028s-4.652-2.096-4.652-5.028Zm-2.851 0c0 4.46 3.12 7.603 7.502 7.603 4.381 0 7.533-3.143 7.533-7.603s-3.12-7.722-7.533-7.722c-4.412 0-7.502 3.203-7.502 7.722ZM38.76 4.819l5.882 14.966h2.762l5.882-14.966h-2.97l-4.263 11.554h-.06L41.73 4.819H38.76Zm-11.435 7.004c.18-2.755 2.01-4.61 4.502-4.61 2.16 0 3.781 1.378 4.021 3.443h-4.982c-1.77 0-2.732.21-3.45 1.168h-.091v-.001Zm-2.851.449c0 4.46 3.151 7.691 7.502 7.691 2.942 0 5.522-1.496 6.633-3.861l-2.401-1.198c-.84 1.556-2.461 2.485-4.232 2.485-2.131 0-4.052-1.617-4.052-3.173 0-.808.54-1.168 1.32-1.168h9.514v-.808c0-4.49-2.88-7.603-7.022-7.603-4.141 0-7.263 3.204-7.263 7.633m-8.162 7.513h2.7v-9.187c0-1.976 1.23-3.383 2.942-3.383.72 0 1.47.24 1.831.568.27-.718.69-1.436 1.32-2.154-.72-.599-1.95-.989-3.15-.989-3.302 0-5.643 2.455-5.643 5.956v9.19-.001ZM3.256 9.878V2.574h4.442c1.5 0 2.49.867 2.49 2.184 0 1.497-1.29 2.634-3.93 3.502-1.801.568-2.611 1.047-2.912 1.617h-.09Zm0 7.333v-3.053c0-1.347 1.14-2.664 2.731-3.173 1.411-.479 2.58-.958 3.572-1.466 1.32.779 2.13 2.125 2.13 3.532 0 2.394-2.281 4.16-5.372 4.16H3.256ZM.555 19.785h6.002c4.562 0 7.983-2.844 7.983-6.615 0-2.066-1.05-3.92-2.911-5.118.96-.958 1.41-2.066 1.41-3.413C13.04 1.856 11.03 0 8 0H.554v19.785Z" fill="#8A8A8A"/></g><defs><clipPath id="a"><path fill="#fff" transform="translate(.555)" d="M0 0h67.797v20H0z"/></clipPath></defs></svg>
