<svg width="60" height="20" fill="none" xmlns="http://www.w3.org/2000/svg"><path fill-rule="evenodd" clip-rule="evenodd" d="M15.78.19a.19.19 0 0 1 .19-.19h2.857a.19.19 0 0 1 .19.19v19.43a.19.19 0 0 1-.19.19H15.97a.19.19 0 0 1-.19-.19V.19ZM11.747 15.69a.196.196 0 0 0-.262.008c-.445.42-.967.756-1.538.99-.627.258-1.301.388-1.98.382a4.29 4.29 0 0 1-1.68-.289 4.218 4.218 0 0 1-1.425-.917C4.125 15.11 3.7 14.036 3.7 12.754c0-2.565 1.707-4.319 4.266-4.319.687-.01 1.367.13 1.992.407A4.66 4.66 0 0 1 11.456 9.9a.197.197 0 0 0 .27.016l1.93-1.669a.186.186 0 0 0 .018-.265c-1.45-1.621-3.723-2.458-5.885-2.458-4.352 0-7.438 2.936-7.438 7.255 0 2.136.767 3.935 2.06 5.205C3.705 19.254 5.547 20 7.673 20c2.666 0 4.812-1.022 6.07-2.334a.185.185 0 0 0-.015-.269l-1.98-1.708Zm23.01-1.984a.188.188 0 0 1-.188.167H24.56a.184.184 0 0 0-.18.23c.498 1.846 1.982 2.963 4.009 2.963a4.511 4.511 0 0 0 1.979-.411 4.436 4.436 0 0 0 1.5-1.124.14.14 0 0 1 .195-.018l2.012 1.753a.186.186 0 0 1 .022.26C32.882 18.96 30.914 20 28.212 20c-4.155 0-7.29-2.878-7.29-7.25 0-2.145.739-3.943 1.97-5.213a6.816 6.816 0 0 1 2.288-1.515 6.91 6.91 0 0 1 2.712-.497c4.211 0 6.935 2.962 6.935 7.052a11.71 11.71 0 0 1-.07 1.128ZM24.44 11.05a.182.182 0 0 0 .178.233h6.655a.184.184 0 0 0 .18-.234c-.454-1.57-1.605-2.617-3.392-2.617a3.71 3.71 0 0 0-1.534.279c-.485.2-.92.501-1.275.882-.374.424-.65.921-.812 1.457Zm20.29-5.524a.19.19 0 0 1 .192.19v3.2a.19.19 0 0 1-.205.19c-.308-.024-.6-.043-.791-.043-2.493 0-3.956 1.754-3.956 4.057v6.5a.19.19 0 0 1-.19.19h-2.858a.19.19 0 0 1-.19-.19V5.913a.19.19 0 0 1 .19-.19h2.858a.19.19 0 0 1 .19.19v1.924a.02.02 0 0 0 .035.011c1.117-1.491 2.766-2.32 4.507-2.32l.218-.003Zm7.74 8.378a.062.062 0 0 1 .097.01l3.612 5.806a.19.19 0 0 0 .162.09h3.248a.19.19 0 0 0 .162-.291l-4.956-7.997a.19.19 0 0 1 .02-.228l4.776-5.269a.19.19 0 0 0-.141-.318H56.06a.19.19 0 0 0-.14.061l-5.525 6.023a.19.19 0 0 1-.33-.129V.19a.19.19 0 0 0-.191-.19h-2.857a.19.19 0 0 0-.19.19v19.43c0 .104.084.19.19.19h2.857a.19.19 0 0 0 .19-.19v-3.058a.19.19 0 0 1 .051-.13l2.353-2.528Z" fill="#8A8A8A"/></svg>
