<svg xmlns="http://www.w3.org/2000/svg" width="24" height="24" fill="none"><path fill="currentColor" fill-rule="evenodd" d="M5.79 5.15c.528-.568 1.275-.879 2.14-.879h4.12c.763 0 1.435.24 1.947.69.511.447.826 1.07.935 1.774a.594.594 0 1 1-1.175.182c-.072-.466-.27-.823-.544-1.063-.271-.238-.656-.394-1.163-.394H7.93c-.569 0-.99.198-1.27.5-.285.306-.47.768-.47 1.364v5.307c0 .543.154.974.397 1.276.239.298.59.505 1.06.563a.595.595 0 0 1-.147 1.18c-.76-.094-1.397-.447-1.84-.998-.44-.547-.66-1.254-.66-2.021V7.324c0-.843.266-1.611.79-2.174Z" clip-rule="evenodd"/><path fill="currentColor" fill-rule="evenodd" d="M9.812 9.201c.528-.566 1.276-.876 2.14-.876h4.119c.867 0 1.614.31 2.143.877.523.562.787 1.33.787 2.171v5.307c0 .842-.264 1.61-.788 2.172-.528.567-1.276.877-2.143.877h-4.117c-.867 0-1.615-.31-2.143-.877-.524-.563-.787-1.33-.787-2.172v-5.307c0-.842.265-1.61.789-2.172Zm.87.811c-.285.306-.47.766-.47 1.361v5.307c0 .597.184 1.057.468 1.362.28.3.7.498 1.273.498h4.117c.574 0 .994-.198 1.273-.498.284-.305.468-.765.468-1.362v-5.307c0-.596-.184-1.056-.468-1.361-.28-.3-.699-.498-1.272-.498h-4.119c-.57 0-.99.197-1.27.498Z" clip-rule="evenodd"/></svg>