<svg xmlns="http://www.w3.org/2000/svg" width="77" height="20" fill="none"><rect width="20" height="20" fill="#FFB8B8" rx="4"/><path fill="#000" d="M9.626 5.06c2.772 0 4.508 1.876 4.508 4.984 0 3.08-1.694 4.956-4.424 4.956H6.756V5.06h2.87ZM8.8 13.166h.826c1.498 0 2.338-1.036 2.338-3.136s-.84-3.136-2.338-3.136H8.8v6.272Z"/><path fill="url(#a)" d="M30.964 5.385c2.886 0 4.511 1.664 4.511 4.628 0 2.951-1.586 4.602-4.433 4.602H28v-9.23h2.964Zm-1.56 7.943h1.56c2.054 0 3.068-1.092 3.068-3.315 0-2.249-1.014-3.341-3.068-3.341h-1.56v6.656Z"/><path fill="url(#b)" d="M37.065 5.385h6.006v1.287h-4.602v2.691h4.445v1.248h-4.446v2.717h4.706v1.287h-6.11v-9.23Z"/><path fill="url(#c)" d="M47.95 5.385c2.886 0 4.511 1.664 4.511 4.628 0 2.951-1.586 4.602-4.433 4.602h-3.042v-9.23h2.964Zm-1.56 7.943h1.56c2.054 0 3.068-1.092 3.068-3.315 0-2.249-1.014-3.341-3.068-3.341h-1.56v6.656Z"/><path fill="url(#d)" d="m52.914 14.615 3.328-9.23h1.794l3.328 9.23h-1.508l-.832-2.405h-3.77l-.845 2.405h-1.495Zm2.782-3.679h2.886L57.14 6.724l-1.443 4.212Z"/><path fill="url(#e)" d="M62.57 14.615v-9.23h1.403v7.943h4.498v1.287H62.57Z"/><path fill="url(#f)" d="M70.161 5.385h6.006v1.287h-4.602v2.691h4.446v1.248h-4.446v2.717h4.706v1.287h-6.11v-9.23Z"/><defs><linearGradient id="a" x1="21.966" x2="114.916" y1="-2.691" y2="26.122" gradientUnits="userSpaceOnUse"><stop stop-color="#fff"/><stop offset="1" stop-color="#FFB8B8"/></linearGradient><linearGradient id="b" x1="21.966" x2="114.916" y1="-2.691" y2="26.122" gradientUnits="userSpaceOnUse"><stop stop-color="#fff"/><stop offset="1" stop-color="#FFB8B8"/></linearGradient><linearGradient id="c" x1="21.966" x2="114.916" y1="-2.691" y2="26.122" gradientUnits="userSpaceOnUse"><stop stop-color="#fff"/><stop offset="1" stop-color="#FFB8B8"/></linearGradient><linearGradient id="d" x1="21.966" x2="114.916" y1="-2.691" y2="26.122" gradientUnits="userSpaceOnUse"><stop stop-color="#fff"/><stop offset="1" stop-color="#FFB8B8"/></linearGradient><linearGradient id="e" x1="21.966" x2="114.916" y1="-2.691" y2="26.122" gradientUnits="userSpaceOnUse"><stop stop-color="#fff"/><stop offset="1" stop-color="#FFB8B8"/></linearGradient><linearGradient id="f" x1="21.966" x2="114.916" y1="-2.691" y2="26.122" gradientUnits="userSpaceOnUse"><stop stop-color="#fff"/><stop offset="1" stop-color="#FFB8B8"/></linearGradient></defs></svg>
