<svg width="87" height="20" fill="none" xmlns="http://www.w3.org/2000/svg"><rect width="20" height="20" rx="4" fill="#FFB8B8"/><path d="M9.626 5.06c2.772 0 4.508 1.876 4.508 4.984 0 3.08-1.694 4.956-4.424 4.956H6.756V5.06h2.87ZM8.8 13.166h.826c1.498 0 2.338-1.036 2.338-3.136s-.84-3.136-2.338-3.136H8.8v6.272Z" fill="#000"/><path d="M30.964 1.045c2.886 0 4.511 1.664 4.511 4.628 0 2.951-1.586 4.602-4.433 4.602H28v-9.23h2.964Zm-1.56 7.943h1.56c2.054 0 3.068-1.092 3.068-3.315 0-2.249-1.014-3.341-3.068-3.341h-1.56v6.656Z" fill="url(#a)"/><path d="M37.065 1.045h6.006v1.287h-4.602v2.691h4.445v1.248h-4.446v2.717h4.706v1.287h-6.11v-9.23Z" fill="url(#b)"/><path d="M47.95 1.045c2.886 0 4.511 1.664 4.511 4.628 0 2.951-1.586 4.602-4.433 4.602h-3.042v-9.23h2.964Zm-1.56 7.943h1.56c2.054 0 3.068-1.092 3.068-3.315 0-2.249-1.014-3.341-3.068-3.341h-1.56v6.656Z" fill="url(#c)"/><path d="m52.914 10.275 3.328-9.23h1.794l3.328 9.23h-1.508l-.832-2.405h-3.77l-.845 2.405h-1.495Zm2.782-3.679h2.886L57.14 2.384l-1.443 4.212Z" fill="url(#d)"/><path d="M62.57 10.275v-9.23h1.403v7.943h4.498v1.287H62.57Z" fill="url(#e)"/><path d="M70.161 1.045h6.006v1.287h-4.602v2.691h4.446v1.248h-4.446v2.717h4.706v1.287h-6.11v-9.23Z" fill="url(#f)"/><path d="M28 18.955v-5.68h1.992c1.408 0 2.112.512 2.112 1.576 0 .648-.392 1.08-1.056 1.168.824.088 1.296.576 1.296 1.328 0 1.04-.72 1.608-2.032 1.608H28Zm.864-.776h1.456c.712 0 1.136-.304 1.136-.864 0-.568-.424-.88-1.136-.88h-1.456v1.744Zm0-2.48h1.16c.76 0 1.192-.288 1.192-.816 0-.552-.408-.832-1.192-.832h-1.16v1.648ZM32.785 13.275h.992l1.44 2.528 1.44-2.528h.984l-1.992 3.4v2.28h-.864v-2.28l-2-3.4ZM40.46 18.955v-5.68h1.993c1.408 0 2.112.512 2.112 1.576 0 .648-.392 1.08-1.056 1.168.824.088 1.296.576 1.296 1.328 0 1.04-.72 1.608-2.032 1.608H40.46Zm.865-.776h1.456c.712 0 1.136-.304 1.136-.864 0-.568-.424-.88-1.136-.88h-1.456v1.744Zm0-2.48h1.16c.76 0 1.192-.288 1.192-.816 0-.552-.408-.832-1.192-.832h-1.16v1.648ZM45.953 13.275h.864v5.68h-.864v-5.68ZM50.46 13.275c1.183 0 1.967.648 1.967 1.712 0 .688-.44 1.184-.976 1.336.576.08.824.376.88.976l.152 1.656h-.872l-.128-1.544c-.048-.512-.368-.672-1.144-.672h-1.28v2.216h-.864v-5.68h2.264Zm-1.4 2.672h1.343c.72 0 1.128-.328 1.128-.936 0-.6-.4-.944-1.128-.944H49.06v1.88ZM53.523 13.275h3.696v.792h-2.832v1.656h2.736v.768h-2.736v1.672h2.896v.792h-3.76v-5.68ZM58.398 13.275h1.184l1.688 4.664 1.688-4.664h1.184v5.68h-.872v-4.104l-1.52 4.096h-.96l-1.528-4.096v4.104h-.864v-5.68ZM65.406 13.275h3.696v.792H66.27v1.656h2.736v.768H66.27v1.672h2.896v.792h-3.76v-5.68ZM72.227 18.955v-5.68h.864v4.888h2.768v.792h-3.632ZM76.527 18.955l2.048-5.68h1.104l2.048 5.68H80.8l-.512-1.48h-2.32l-.52 1.48h-.92Zm1.712-2.264h1.776l-.888-2.592-.888 2.592ZM82.469 18.955v-5.68h1.992c1.408 0 2.112.512 2.112 1.576 0 .648-.392 1.08-1.056 1.168.824.088 1.296.576 1.296 1.328 0 1.04-.72 1.608-2.032 1.608h-2.312Zm.864-.776h1.456c.712 0 1.136-.304 1.136-.864 0-.568-.424-.88-1.136-.88h-1.456v1.744Zm0-2.48h1.16c.76 0 1.192-.288 1.192-.816 0-.552-.408-.832-1.192-.832h-1.16v1.648Z" fill="#FFB8B8"/><defs><linearGradient id="a" x1="21.966" y1="-7.031" x2="114.916" y2="21.782" gradientUnits="userSpaceOnUse"><stop stop-color="#fff"/><stop offset="1" stop-color="#FFB8B8"/></linearGradient><linearGradient id="b" x1="21.966" y1="-7.031" x2="114.916" y2="21.782" gradientUnits="userSpaceOnUse"><stop stop-color="#fff"/><stop offset="1" stop-color="#FFB8B8"/></linearGradient><linearGradient id="c" x1="21.966" y1="-7.031" x2="114.916" y2="21.782" gradientUnits="userSpaceOnUse"><stop stop-color="#fff"/><stop offset="1" stop-color="#FFB8B8"/></linearGradient><linearGradient id="d" x1="21.966" y1="-7.031" x2="114.916" y2="21.782" gradientUnits="userSpaceOnUse"><stop stop-color="#fff"/><stop offset="1" stop-color="#FFB8B8"/></linearGradient><linearGradient id="e" x1="21.966" y1="-7.031" x2="114.916" y2="21.782" gradientUnits="userSpaceOnUse"><stop stop-color="#fff"/><stop offset="1" stop-color="#FFB8B8"/></linearGradient><linearGradient id="f" x1="21.966" y1="-7.031" x2="114.916" y2="21.782" gradientUnits="userSpaceOnUse"><stop stop-color="#fff"/><stop offset="1" stop-color="#FFB8B8"/></linearGradient></defs></svg>
