<svg xmlns="http://www.w3.org/2000/svg" width="24" height="24" fill="none"><path fill="currentColor" d="M9.352 16.883c0 .066-.075.12-.168.12-.107.01-.18-.044-.18-.12 0-.066.073-.119.167-.119.097-.01.18.043.18.12Zm-1.004-.149c-.022.066.042.143.14.162.083.034.18 0 .2-.066.018-.066-.043-.142-.14-.172-.083-.023-.177.01-.2.076Zm1.426-.056c-.093.023-.158.086-.148.162.01.066.093.11.19.086.094-.023.158-.086.149-.152-.01-.063-.097-.106-.19-.096ZM11.897 4C7.423 4 4 7.484 4 12.073c0 3.669 2.252 6.808 5.468 7.913.413.077.558-.185.558-.4 0-.205-.01-1.336-.01-2.031 0 0-2.258.496-2.732-.986 0 0-.368-.963-.897-1.211 0 0-.739-.52.052-.51 0 0 .803.067 1.245.854.706 1.277 1.89.91 2.352.691.074-.529.283-.896.516-1.114-1.804-.206-3.623-.473-3.623-3.656 0-.91.245-1.367.761-1.949-.084-.215-.358-1.102.084-2.246C8.448 7.213 10 8.32 10 8.32a7.402 7.402 0 0 1 2.026-.281c.687 0 1.38.096 2.026.28 0 0 1.551-1.11 2.225-.892.442 1.148.168 2.031.084 2.246.516.586.832 1.042.832 1.949 0 3.192-1.9 3.447-3.703 3.656.297.26.549.757.549 1.535 0 1.115-.01 2.494-.01 2.766 0 .215.148.476.558.4C17.813 18.88 20 15.742 20 12.073 20 7.483 16.371 4 11.897 4ZM7.135 15.41c-.041.034-.032.11.023.173.052.053.126.076.168.033.042-.033.032-.11-.023-.172-.051-.053-.126-.076-.168-.033Zm-.348-.267c-.022.043.01.096.074.129.052.033.116.023.139-.023.023-.043-.01-.096-.074-.13-.065-.02-.116-.01-.139.024Zm1.045 1.178c-.051.043-.032.142.042.205.074.076.168.086.21.033.042-.043.022-.142-.042-.205-.071-.076-.168-.086-.21-.033Zm-.367-.487c-.052.034-.052.12 0 .196.051.076.138.109.18.076.052-.043.052-.13 0-.205-.045-.076-.129-.11-.18-.067Z"/></svg>