<svg xmlns="http://www.w3.org/2000/svg" width="154" height="51" fill="none"><path fill="currentColor" fill-rule="evenodd" d="M113.204 7.66c7.337.821 13.041 2.896 18.727 5.162 18.649 7.438 24.259 16.873 10.341 24.39-21.639 11.652-70.001 16.19-106.517 8.784-8.087-1.635-19.074-3.425-26.784-8.544-7.171-4.76-6.42-9.581-2.558-13.758 3.934-4.286 11.102-7.91 16.752-10.145C47.863 3.8 96.15-2.727 138.427 6.829c.87.188 1.767.08 2.049-.24.282-.32-.125-.727-.932-.91-43.517-9.836-93.335-3.212-118.755 6.82-7.03 2.789-16.338 7.663-19.38 13.301C-.65 29.656.173 33.861 6.386 38.016c8.186 5.45 19.853 7.426 28.438 9.166 37.697 7.647 87.716 2.998 110.023-9.04 14.982-8.078 9.057-18.218-10.999-26.214-6.113-2.453-12.375-4.661-20.34-5.551-.878-.098-1.656.11-1.689.47-.095.352.568.721 1.384.814Z" clip-rule="evenodd"/></svg>