<svg width="87" height="20" fill="none" xmlns="http://www.w3.org/2000/svg"><rect width="20" height="20" rx="4" fill="#C2EFBE"/><path d="M6.602 15V5.06h2.044v4.074h3.108V5.06h2.044V15h-2.044v-4.032H8.646V15H6.602Z" fill="#000"/><path d="M28 10.301v-9.23h1.404v3.952h4.16V1.071h1.404v9.23h-1.404V6.297h-4.16v4.004H28Z" fill="url(#a)"/><path d="M37.204 1.071h6.006v1.287h-4.602v2.691h4.446v1.248h-4.446v2.717h4.706v1.287h-6.11v-9.23Z" fill="url(#b)"/><path d="M48.805 1.071c1.924 0 3.198 1.053 3.198 2.782 0 1.118-.715 1.924-1.586 2.171.936.13 1.339.611 1.43 1.586l.247 2.691h-1.417l-.208-2.509C50.391 6.96 49.871 6.7 48.61 6.7h-2.08v3.601h-1.404v-9.23h3.679ZM46.53 5.413h2.184c1.17 0 1.833-.533 1.833-1.521 0-.975-.65-1.534-1.833-1.534H46.53v3.055Z" fill="url(#c)"/><path d="M53.784 1.071h1.924l2.743 7.579 2.743-7.579h1.924v9.23h-1.417V3.632l-2.47 6.656h-1.56l-2.483-6.656v6.669h-1.404v-9.23Z" fill="url(#d)"/><path d="M65.172 1.071h6.006v1.287h-4.602v2.691h4.446v1.248h-4.446v2.717h4.706v1.287h-6.11v-9.23Z" fill="url(#e)"/><path d="M74.147 7.233c.22 1.17 1.04 1.95 2.392 1.95 1.092 0 1.82-.429 1.807-1.274 0-.845-.728-1.365-2.444-1.794-1.664-.403-3.003-1.17-3.003-2.652 0-1.599 1.3-2.6 3.172-2.6 2.002 0 3.354 1.248 3.549 3.003l-1.43.078c-.156-1.092-.962-1.807-2.145-1.807-.988 0-1.703.52-1.69 1.339 0 1.001 1.196 1.3 2.314 1.599 1.807.455 3.133 1.313 3.133 2.73 0 1.729-1.56 2.652-3.341 2.652-2.093 0-3.601-1.235-3.757-3.133l1.443-.091Z" fill="url(#f)"/><path d="M28 19.137v-5.68h1.992c1.408 0 2.112.512 2.112 1.576 0 .648-.392 1.08-1.056 1.168.824.088 1.296.576 1.296 1.328 0 1.04-.72 1.608-2.032 1.608H28Zm.864-.776h1.456c.712 0 1.136-.304 1.136-.864 0-.568-.424-.88-1.136-.88h-1.456v1.744Zm0-2.48h1.16c.76 0 1.192-.288 1.192-.816 0-.552-.408-.832-1.192-.832h-1.16v1.648ZM32.785 13.457h.992l1.44 2.528 1.44-2.528h.984l-1.992 3.4v2.28h-.864v-2.28l-2-3.4ZM40.46 19.137v-5.68h1.993c1.408 0 2.112.512 2.112 1.576 0 .648-.392 1.08-1.056 1.168.824.088 1.296.576 1.296 1.328 0 1.04-.72 1.608-2.032 1.608H40.46Zm.865-.776h1.456c.712 0 1.136-.304 1.136-.864 0-.568-.424-.88-1.136-.88h-1.456v1.744Zm0-2.48h1.16c.76 0 1.192-.288 1.192-.816 0-.552-.408-.832-1.192-.832h-1.16v1.648ZM45.953 13.457h.864v5.68h-.864v-5.68ZM50.46 13.457c1.183 0 1.967.648 1.967 1.712 0 .688-.44 1.184-.976 1.336.576.08.824.376.88.976l.152 1.656h-.872l-.128-1.544c-.048-.512-.368-.672-1.144-.672h-1.28v2.216h-.864v-5.68h2.264Zm-1.4 2.672h1.343c.72 0 1.128-.328 1.128-.936 0-.6-.4-.944-1.128-.944H49.06v1.88ZM53.523 13.457h3.696v.792h-2.832v1.656h2.736v.768h-2.736v1.672h2.896v.792h-3.76v-5.68ZM58.398 13.457h1.184l1.688 4.664 1.688-4.664h1.184v5.68h-.872v-4.104l-1.52 4.096h-.96l-1.528-4.096v4.104h-.864v-5.68ZM65.406 13.457h3.696v.792H66.27v1.656h2.736v.768H66.27v1.672h2.896v.792h-3.76v-5.68ZM72.227 19.137v-5.68h.864v4.888h2.768v.792h-3.632ZM76.527 19.137l2.048-5.68h1.104l2.048 5.68H80.8l-.512-1.48h-2.32l-.52 1.48h-.92Zm1.712-2.264h1.776l-.888-2.592-.888 2.592ZM82.469 19.137v-5.68h1.992c1.408 0 2.112.512 2.112 1.576 0 .648-.392 1.08-1.056 1.168.824.088 1.296.576 1.296 1.328 0 1.04-.72 1.608-2.032 1.608h-2.312Zm.864-.776h1.456c.712 0 1.136-.304 1.136-.864 0-.568-.424-.88-1.136-.88h-1.456v1.744Zm0-2.48h1.16c.76 0 1.192-.288 1.192-.816 0-.552-.408-.832-1.192-.832h-1.16v1.648Z" fill="#C2EFBE"/><defs><linearGradient id="a" x1="21.525" y1="-7.532" x2="120.7" y2="24.209" gradientUnits="userSpaceOnUse"><stop stop-color="#fff"/><stop offset="1" stop-color="#C2EFBE"/></linearGradient><linearGradient id="b" x1="21.525" y1="-7.532" x2="120.7" y2="24.209" gradientUnits="userSpaceOnUse"><stop stop-color="#fff"/><stop offset="1" stop-color="#C2EFBE"/></linearGradient><linearGradient id="c" x1="21.525" y1="-7.532" x2="120.7" y2="24.209" gradientUnits="userSpaceOnUse"><stop stop-color="#fff"/><stop offset="1" stop-color="#C2EFBE"/></linearGradient><linearGradient id="d" x1="21.525" y1="-7.532" x2="120.7" y2="24.209" gradientUnits="userSpaceOnUse"><stop stop-color="#fff"/><stop offset="1" stop-color="#C2EFBE"/></linearGradient><linearGradient id="e" x1="21.525" y1="-7.532" x2="120.7" y2="24.209" gradientUnits="userSpaceOnUse"><stop stop-color="#fff"/><stop offset="1" stop-color="#C2EFBE"/></linearGradient><linearGradient id="f" x1="21.525" y1="-7.532" x2="120.7" y2="24.209" gradientUnits="userSpaceOnUse"><stop stop-color="#fff"/><stop offset="1" stop-color="#C2EFBE"/></linearGradient></defs></svg>
