<svg xmlns="http://www.w3.org/2000/svg" width="80" height="20" fill="none"><rect width="20" height="20" fill="#C2EFBE" rx="4"/><path fill="#000" d="M6.602 15V5.06h2.044v4.074h3.108V5.06h2.044V15h-2.044v-4.032H8.646V15H6.602Z"/><path fill="url(#a)" d="M28 14.641v-9.23h1.404v3.952h4.16V5.411h1.404v9.23h-1.404v-4.004h-4.16v4.004H28Z"/><path fill="url(#b)" d="M37.204 5.411h6.006v1.287h-4.602v2.691h4.446v1.248h-4.446v2.717h4.706v1.287h-6.11v-9.23Z"/><path fill="url(#c)" d="M48.805 5.411c1.924 0 3.198 1.053 3.198 2.782 0 1.118-.715 1.924-1.586 2.171.936.13 1.339.611 1.43 1.586l.247 2.691h-1.417l-.208-2.509c-.078-.832-.598-1.092-1.859-1.092h-2.08v3.601h-1.404v-9.23h3.679ZM46.53 9.753h2.184c1.17 0 1.833-.533 1.833-1.521 0-.975-.65-1.534-1.833-1.534H46.53v3.055Z"/><path fill="url(#d)" d="M53.784 5.411h1.924l2.743 7.579 2.743-7.579h1.924v9.23h-1.417V7.972l-2.47 6.656h-1.56l-2.483-6.656v6.669h-1.404v-9.23Z"/><path fill="url(#e)" d="M65.172 5.411h6.006v1.287h-4.602v2.691h4.446v1.248h-4.446v2.717h4.706v1.287h-6.11v-9.23Z"/><path fill="url(#f)" d="M74.147 11.573c.22 1.17 1.04 1.95 2.392 1.95 1.092 0 1.82-.429 1.807-1.274 0-.845-.728-1.365-2.444-1.794-1.664-.403-3.003-1.17-3.003-2.652 0-1.599 1.3-2.6 3.172-2.6 2.002 0 3.354 1.248 3.549 3.003l-1.43.078c-.156-1.092-.962-1.807-2.145-1.807-.988 0-1.703.52-1.69 1.339 0 1.001 1.196 1.3 2.314 1.599 1.807.455 3.133 1.313 3.133 2.73 0 1.729-1.56 2.652-3.341 2.652-2.093 0-3.601-1.235-3.757-3.133l1.443-.091Z"/><defs><linearGradient id="a" x1="21.525" x2="120.7" y1="-3.192" y2="28.549" gradientUnits="userSpaceOnUse"><stop stop-color="#fff"/><stop offset="1" stop-color="#C2EFBE"/></linearGradient><linearGradient id="b" x1="21.525" x2="120.7" y1="-3.192" y2="28.549" gradientUnits="userSpaceOnUse"><stop stop-color="#fff"/><stop offset="1" stop-color="#C2EFBE"/></linearGradient><linearGradient id="c" x1="21.525" x2="120.7" y1="-3.192" y2="28.549" gradientUnits="userSpaceOnUse"><stop stop-color="#fff"/><stop offset="1" stop-color="#C2EFBE"/></linearGradient><linearGradient id="d" x1="21.525" x2="120.7" y1="-3.192" y2="28.549" gradientUnits="userSpaceOnUse"><stop stop-color="#fff"/><stop offset="1" stop-color="#C2EFBE"/></linearGradient><linearGradient id="e" x1="21.525" x2="120.7" y1="-3.192" y2="28.549" gradientUnits="userSpaceOnUse"><stop stop-color="#fff"/><stop offset="1" stop-color="#C2EFBE"/></linearGradient><linearGradient id="f" x1="21.525" x2="120.7" y1="-3.192" y2="28.549" gradientUnits="userSpaceOnUse"><stop stop-color="#fff"/><stop offset="1" stop-color="#C2EFBE"/></linearGradient></defs></svg>
