<svg width="69" height="20" fill="none" xmlns="http://www.w3.org/2000/svg"><g clip-path="url(#a)" fill="#8A8A8A"><path d="M7.835 3.209v5.468H2.812V3.209H.43v13.052h2.384v-5.29h5.022v5.29h2.384V3.21H7.835Zm10.015 8.834a1.972 1.972 0 1 1-3.946 0V6.452h-2.26v5.59a4.23 4.23 0 0 0 8.458 0v-5.59H17.85v5.59Zm16.755-5.015c0-1.147.758-1.51 1.589-1.51.67 0 1.553.51 2.132 1.128l1.48-1.746c-.739-1-2.238-1.691-3.466-1.691-2.454 0-4.228 1.437-4.228 3.819 0 4.42 5.401 3.016 5.401 5.49 0 .763-.74 1.436-1.588 1.436-1.337 0-1.77-.653-2.385-1.345l-1.644 1.71c1.052 1.29 2.348 1.945 3.901 1.945 2.331 0 4.206-1.454 4.206-3.728 0-4.906-5.402-3.381-5.402-5.508m33.42 7.148c-1.337 0-1.717-.578-1.717-1.463v-3.92h2.078V6.809h-2.078v-2.62l-2.293 1.029V13.2c0 2.042 1.41 3.071 3.341 3.071.303.005.607-.02.905-.072l.559-2.06c-.252.018-.542.035-.795.035M26.457 6.517c-1.12 0-1.902.325-2.658 1.066V3.287h-2.264v7.963c0 2.981 2.155 5.024 4.576 5.024 2.687 0 5.05-2.08 5.05-4.878 0-2.764-2.175-4.877-4.704-4.877m-.014 7.475a2.57 2.57 0 1 1 0-5.14 2.57 2.57 0 0 1 0 5.14Zm24.608-2.717C51.05 8.474 48.693 6.4 46 6.4c-2.421 0-4.577 2.042-4.577 5.023v7.968h2.265v-4.302c.755.74 1.538 1.066 2.657 1.066 2.529 0 4.705-2.113 4.705-4.878Zm-2.145-.028a2.57 2.57 0 1 1-5.14 0 2.57 2.57 0 0 1 5.14 0Z"/><path d="M58.368 6.29V4.015a1.753 1.753 0 0 0 1.01-1.58v-.052c0-.968-.784-1.752-1.752-1.752h-.052a1.752 1.752 0 0 0-1.752 1.752v.052a1.753 1.753 0 0 0 1.01 1.58V6.29a4.962 4.962 0 0 0-2.36 1.039l-6.24-4.86c.045-.161.068-.326.07-.492a1.974 1.974 0 1 0-1.976 1.97c.341-.002.676-.093.972-.264l6.145 4.782a4.977 4.977 0 0 0 .076 5.606l-1.869 1.87a1.604 1.604 0 0 0-.467-.077 1.622 1.622 0 1 0 1.623 1.623 1.6 1.6 0 0 0-.076-.467l1.849-1.85a4.986 4.986 0 1 0 3.79-8.88Zm-.766 7.484a2.558 2.558 0 1 1 0-5.114 2.558 2.558 0 0 1 .002 5.113"/></g><defs><clipPath id="a"><path fill="#fff" transform="translate(.429)" d="M0 0h68.387v20H0z"/></clipPath></defs></svg>
