<svg width="69" height="20" fill="none" xmlns="http://www.w3.org/2000/svg"><path d="M39.366 3.996c.364 0 .711-.142.964-.379a1.34 1.34 0 0 0 .41-.948c0-.363-.158-.71-.41-.963a1.448 1.448 0 0 0-.964-.41 1.41 1.41 0 0 0-.947.41c-.253.253-.395.6-.395.963 0 .348.142.695.395.932.252.253.584.395.947.395ZM48.732 5.275h3.333v.269a1.84 1.84 0 0 0-.521.174c-.3.142-.916.82-1.374 1.974-.79 1.99-1.627 4.343-2.496 7.044l-.331 1.027c-.143.458-.269.758-.332.948-.063.19-.142.458-.285.805-.078.253-.19.506-.315.742-.158.3-.474.916-.711 1.106-.38.316-.948.68-1.659.632-1.374 0-2.416-1.027-2.432-2.243 0-.821.521-1.374 1.311-1.374.569 0 1.074.3 1.074.948 0 .458-.458.947-.458 1.184 0 .632.363.916 1.074.916.569 0 1.027-.363 1.374-1.09.474-.82.506-1.737.127-2.732l-2.922-7.676c-.664-1.77-1.185-2.354-1.801-2.417v-.268h4.596v.268c-.553.063-.837.38-.837.964 0 .426.158 1.074.458 1.895l.553 1.485c.632 1.61 1.137 3.017 1.406 3.901a111.503 111.503 0 0 1 1.658-4.849c.38-1.042.569-1.8.569-2.243 0-.79-.427-1.153-1.074-1.153l.015-.237ZM16.701 15.084c-.584-.095-1.09-.632-1.09-1.738V0l-3.348.727v.284c.569-.063 1.137.442 1.137 1.516v10.835c0 1.043-.568 1.659-1.137 1.738-.047.015-.11.015-.158.015a1.983 1.983 0 0 1-.853-.142c-.442-.19-.821-.537-1.137-1.058L8.567 11.45a2.814 2.814 0 0 0-1.39-1.137 2.922 2.922 0 0 0-1.8-.095l1.737-1.911c1.311-1.453 2.543-2.37 3.696-2.764v-.269H6.972v.269c.995.379.932 1.232-.205 2.559l-2.449 2.843V0L.97.727v.284c.569 0 1.137.568 1.137 1.548v10.803c0 1.185-.553 1.659-1.137 1.738v.268h4.438V15.1c-.726-.095-1.09-.664-1.09-1.738v-1.99l.948-1.042 2.306 3.759c.553.9 1.058 1.263 1.864 1.263h7.723v-.205c.032 0-.19-.016-.458-.063ZM25.925 13.804V9.303c-.047-2.938-1.295-4.28-4.138-4.28-.916 0-1.8.284-2.511.853-.759.568-1.122 1.216-1.122 1.958 0 .727.41 1.264 1.074 1.264.711 0 1.216-.395 1.216-.964 0-.426-.284-1.01-.284-1.406 0-.726.553-1.358 1.5-1.358 1.217 0 2.085.9 2.085 2.922v1.2l-1.01.237c-.521.095-.98.206-1.311.3-.348.095-.79.237-1.311.443-1.058.41-1.627.79-2.117 1.516a2.097 2.097 0 0 0-.363 1.185c0 1.674 1.169 2.432 2.827 2.432 1.295 0 2.685-.68 3.301-1.974.016.41.11.805.285 1.168.695 1.39 2.969.569 2.969.569V15.1c-1.01.173-1.09-1.011-1.09-1.296Zm-2.164-1.39c0 .664-.237 1.2-.726 1.596-.474.379-.948.584-1.453.584-.995 0-1.643-.647-1.643-1.832 0-.569.316-1.09.569-1.39a2.53 2.53 0 0 1 .71-.505c.348-.174.522-.269.759-.38l.931-.347c.458-.174.743-.284.87-.347l-.017 2.622ZM68.555 5.275h-7.882V0h7.882l-1.659 2.638 1.659 2.637ZM52.523 14.073a5.302 5.302 0 0 1-1.5-3.76 4.948 4.948 0 0 1 .379-2.02 5.234 5.234 0 0 1 1.121-1.722c.995-1.043 2.211-1.58 3.633-1.58 1.406 0 2.622.521 3.617 1.58.49.49.884 1.074 1.137 1.705.268.648.395 1.327.379 2.022a5.17 5.17 0 0 1-.38 2.022 5.276 5.276 0 0 1-1.136 1.721c-.995 1.027-2.212 1.548-3.617 1.548-1.422.032-2.638-.49-3.633-1.516Zm5.465-7.329c-.395-.774-.932-1.232-1.548-1.358-1.248-.253-2.37 1.027-2.78 3.064a9.648 9.648 0 0 0-.126 2.78c.095.932.347 1.832.758 2.67.395.773.932 1.231 1.548 1.357 1.248.253 2.4-1.09 2.811-3.143.364-1.721.19-3.822-.663-5.37Z" fill="#8A8A8A"/><path d="M40.535 13.346v-8.07h-7.139v.236c.948.142 1.406.853.98 2.022-2.228 6.018-2.085 5.75-2.228 6.239-.142-.458-.474-1.611-.995-3.033a213.079 213.079 0 0 1-1.01-2.795c-.553-1.675-.364-2.29.52-2.401v-.269h-4.627v.269c.695.142 1.295.932 1.8 2.337l.711 1.833c.774 1.974 1.69 4.706 2.006 5.638h1.532c.49-1.437 2.48-7.155 2.748-7.739.285-.663.616-1.169.98-1.516a1.72 1.72 0 0 1 .631-.427 2 2 0 0 1 .743-.142s1.121 0 1.121 1.074V13.362c0 1.122-.553 1.659-1.121 1.738v.268h4.422V15.1c-.584-.095-1.074-.616-1.074-1.754Z" fill="#8A8A8A"/></svg>
