<svg xmlns="http://www.w3.org/2000/svg" width="104" height="20" fill="none"><rect width="20" height="20" fill="#FFE9D6" rx="4"/><path fill="#000" d="M6.826 15V5.06h2.87c2.52 0 3.808.938 3.808 2.758 0 1.106-.77 1.876-2.058 2.03v.028c1.568.14 2.478.994 2.478 2.31 0 1.834-1.26 2.814-3.668 2.814h-3.43Zm2.058-1.834h1.274c1.05 0 1.624-.406 1.624-1.162 0-.756-.56-1.162-1.624-1.162H8.884v2.324Zm0-4.116h.91c1.036 0 1.568-.364 1.568-1.078 0-.7-.532-1.078-1.568-1.078h-.91V9.05Z"/><path fill="url(#a)" d="M28 14.615v-9.23h3.237c2.288 0 3.432.832 3.432 2.561 0 1.053-.637 1.755-1.716 1.898 1.339.143 2.106.936 2.106 2.158 0 1.69-1.17 2.613-3.302 2.613H28Zm1.404-1.261h2.366c1.157 0 1.846-.494 1.846-1.404 0-.923-.689-1.43-1.846-1.43h-2.366v2.834Zm0-4.03h1.885c1.235 0 1.937-.468 1.937-1.326 0-.897-.663-1.352-1.937-1.352h-1.885v2.678Z"/><path fill="url(#b)" d="M36.925 5.385h1.404v9.23h-1.404v-9.23Z"/><path fill="url(#c)" d="M44.247 5.385c1.924 0 3.198 1.053 3.198 2.782 0 1.118-.715 1.924-1.586 2.171.936.13 1.34.611 1.43 1.586l.247 2.691H46.12l-.208-2.509c-.078-.832-.598-1.092-1.859-1.092h-2.08v3.601h-1.404v-9.23h3.68Zm-2.275 4.342h2.184c1.17 0 1.833-.533 1.833-1.521 0-.975-.65-1.534-1.833-1.534h-2.184v3.055Z"/><path fill="url(#d)" d="M49.227 5.385h6.006v1.287H50.63v2.691h4.446v1.248H50.63v2.717h4.706v1.287h-6.11v-9.23Z"/><path fill="url(#e)" d="M57.148 5.385h1.924l2.743 7.579 2.743-7.579h1.924v9.23h-1.417V7.946l-2.47 6.656h-1.56l-2.483-6.656v6.669h-1.404v-9.23Z"/><path fill="url(#f)" d="M68.536 5.385h6.006v1.287H69.94v2.691h4.446v1.248H69.94v2.717h4.706v1.287h-6.11v-9.23Z"/><path fill="url(#g)" d="M79.62 14.615v-9.23h1.403v7.943h4.498v1.287H79.62Z"/><path fill="url(#h)" d="m86.608 14.615 3.328-9.23h1.793l3.329 9.23h-1.509l-.832-2.405h-3.77l-.844 2.405h-1.495Zm2.781-3.679h2.886l-1.443-4.212-1.442 4.212Z"/><path fill="url(#i)" d="M96.263 14.615v-9.23H99.5c2.288 0 3.432.832 3.432 2.561 0 1.053-.637 1.755-1.716 1.898 1.339.143 2.106.936 2.106 2.158 0 1.69-1.17 2.613-3.302 2.613h-3.757Zm1.404-1.261h2.366c1.157 0 1.846-.494 1.846-1.404 0-.923-.689-1.43-1.846-1.43h-2.366v2.834Zm0-4.03h1.885c1.235 0 1.937-.468 1.937-1.326 0-.897-.663-1.352-1.937-1.352h-1.885v2.678Z"/><defs><linearGradient id="a" x1="18.585" x2="147.417" y1="-2.691" y2="59.626" gradientUnits="userSpaceOnUse"><stop stop-color="#fff"/><stop offset="1" stop-color="#FFC799"/></linearGradient><linearGradient id="b" x1="18.585" x2="147.417" y1="-2.691" y2="59.626" gradientUnits="userSpaceOnUse"><stop stop-color="#fff"/><stop offset="1" stop-color="#FFC799"/></linearGradient><linearGradient id="c" x1="18.585" x2="147.417" y1="-2.691" y2="59.626" gradientUnits="userSpaceOnUse"><stop stop-color="#fff"/><stop offset="1" stop-color="#FFC799"/></linearGradient><linearGradient id="d" x1="18.585" x2="147.417" y1="-2.691" y2="59.626" gradientUnits="userSpaceOnUse"><stop stop-color="#fff"/><stop offset="1" stop-color="#FFC799"/></linearGradient><linearGradient id="e" x1="18.585" x2="147.417" y1="-2.691" y2="59.626" gradientUnits="userSpaceOnUse"><stop stop-color="#fff"/><stop offset="1" stop-color="#FFC799"/></linearGradient><linearGradient id="f" x1="18.585" x2="147.417" y1="-2.691" y2="59.626" gradientUnits="userSpaceOnUse"><stop stop-color="#fff"/><stop offset="1" stop-color="#FFC799"/></linearGradient><linearGradient id="g" x1="18.585" x2="147.417" y1="-2.691" y2="59.626" gradientUnits="userSpaceOnUse"><stop stop-color="#fff"/><stop offset="1" stop-color="#FFC799"/></linearGradient><linearGradient id="h" x1="18.585" x2="147.417" y1="-2.691" y2="59.626" gradientUnits="userSpaceOnUse"><stop stop-color="#fff"/><stop offset="1" stop-color="#FFC799"/></linearGradient><linearGradient id="i" x1="18.585" x2="147.417" y1="-2.691" y2="59.626" gradientUnits="userSpaceOnUse"><stop stop-color="#fff"/><stop offset="1" stop-color="#FFC799"/></linearGradient></defs></svg>
