<svg xmlns="http://www.w3.org/2000/svg" width="140" height="24" fill="none"><path fill="currentColor" fill-opacity=".5" d="M0 11v10.91h3.814c.76 0 1.387-.132 1.88-.395.494-.26.861-.61 1.103-1.05.241-.436.362-.921.362-1.454 0-.468-.083-.855-.25-1.16a1.948 1.948 0 0 0-.65-.725 2.96 2.96 0 0 0-.868-.395v-.106c.333-.021.669-.139 1.006-.352a2.55 2.55 0 0 0 .847-.916c.228-.397.341-.884.341-1.46a2.93 2.93 0 0 0-.373-1.475c-.248-.437-.64-.783-1.177-1.039C5.5 11.128 4.801 11 3.942 11H0Zm1.321 1.172h2.62c.864 0 1.476.167 1.838.5.366.338.55.746.55 1.226 0 .369-.095.71-.283 1.023a2.043 2.043 0 0 1-.805.756c-.348.192-.76.287-1.235.287H1.32v-3.792Zm0 4.943h2.45c.398 0 .757.078 1.076.234.323.157.58.377.767.66.192.285.288.619.288 1.002 0 .48-.167.886-.5 1.22-.335.337-.864.506-1.588.506H1.32v-3.622ZM13.327 21.91V11h-1.321v10.91h1.32ZM18.226 11v10.91h3.686c.852 0 1.552-.146 2.098-.438.547-.287.952-.683 1.215-1.188.263-.504.394-1.077.394-1.72s-.131-1.213-.394-1.71c-.263-.497-.666-.888-1.21-1.172-.543-.28-1.237-.42-2.082-.42H18.95v1.192h2.94c.583 0 1.052.086 1.407.256.358.17.617.412.777.725.164.316.245.692.245 1.129 0 .437-.081.819-.245 1.145a1.67 1.67 0 0 1-.783.757c-.358.18-.832.271-1.422.271h-2.322V11h-1.321Zm5.134 4.9 2.685-4.9h-1.534l-2.642 4.9h1.491ZM30.07 11v10.91h6.584v-1.173h-5.263v-3.686h4.922V15.88h-4.922v-3.707h5.348V11H30.07ZM41.285 21.91h1.577l3.707-9.056h.128l3.707 9.055h1.577V11h-1.236v8.288h-.106L47.229 11h-1.192l-3.41 8.288h-.106V11h-1.236v10.91ZM56.88 11v10.91h6.584v-1.173H58.2v-3.686h4.922V15.88H58.2v-3.707h5.348V11h-6.67ZM74.564 11v10.91h1.32v-9.738h5.072V11h-6.392ZM86.387 11h-1.385l4.006 10.91h1.363L94.377 11h-1.385l-3.26 9.183h-.085L86.387 11Zm.511 4.261h5.583V14.09h-5.583v1.171ZM98.326 11v10.91h3.814c.76 0 1.387-.132 1.88-.395.494-.26.862-.61 1.103-1.05a2.95 2.95 0 0 0 .362-1.454c0-.468-.083-.855-.25-1.16a1.944 1.944 0 0 0-.65-.725 2.961 2.961 0 0 0-.868-.395v-.106c.334-.021.669-.139 1.007-.352a2.55 2.55 0 0 0 .846-.916c.228-.397.341-.884.341-1.46 0-.546-.124-1.038-.372-1.475-.249-.437-.641-.783-1.178-1.039-.536-.255-1.234-.383-2.093-.383h-3.942Zm1.321 1.172h2.621c.863 0 1.475.167 1.838.5.365.338.548.746.548 1.226 0 .369-.094.71-.282 1.023a2.04 2.04 0 0 1-.804.756c-.348.192-.76.287-1.236.287h-2.685v-3.792Zm0 4.943h2.45c.398 0 .757.078 1.076.234.324.157.579.377.768.66.191.285.287.619.287 1.002 0 .48-.167.886-.501 1.22-.333.337-.862.506-1.587.506h-2.493v-3.622Z"/><path fill="#F9EADE" d="M0 10.91V0h3.814c.76 0 1.387.131 1.88.394.494.26.861.61 1.103 1.05.241.436.362.921.362 1.454 0 .468-.083.856-.25 1.161-.164.305-.38.547-.65.724a2.958 2.958 0 0 1-.868.395v.106c.333.021.669.139 1.006.352.338.213.62.518.847.916.228.398.341.884.341 1.46a2.93 2.93 0 0 1-.373 1.475c-.248.437-.64.783-1.177 1.039-.536.255-1.234.383-2.093.383H0Zm1.321-1.173h2.62c.864 0 1.476-.167 1.838-.5.366-.338.55-.746.55-1.226 0-.369-.095-.71-.283-1.022a2.043 2.043 0 0 0-.805-.757c-.348-.192-.76-.287-1.235-.287H1.32v3.792Zm0-4.943h2.45c.398 0 .757-.078 1.076-.234.323-.157.58-.377.767-.66.192-.285.288-.619.288-1.002 0-.48-.167-.886-.5-1.22-.335-.337-.864-.506-1.588-.506H1.32v3.622ZM13.327 0v10.91h-1.321V0h1.32ZM18.226 10.91V0h3.686c.852 0 1.552.146 2.098.437.547.287.952.683 1.215 1.188.263.504.394 1.077.394 1.72s-.131 1.213-.394 1.71c-.263.497-.666.888-1.21 1.172-.543.28-1.237.42-2.082.42H18.95V5.456h2.94c.583 0 1.052-.086 1.407-.256.358-.17.617-.412.777-.725.164-.316.245-.692.245-1.129 0-.437-.081-.818-.245-1.145a1.67 1.67 0 0 0-.783-.756c-.358-.182-.832-.272-1.422-.272h-2.322v9.737h-1.321Zm5.134-4.901 2.685 4.9h-1.534l-2.642-4.9h1.491ZM30.07 10.91V0h6.584v1.172h-5.263v3.686h4.922V6.03h-4.922v3.707h5.348v1.172H30.07ZM41.285 0h1.577l3.707 9.055h.128L50.404 0h1.577v10.91h-1.236V2.62h-.106l-3.41 8.29h-1.192l-3.41-8.29h-.106v8.29h-1.236V0ZM56.88 10.91V0h6.584v1.172H58.2v3.686h4.922V6.03H58.2v3.707h5.348v1.172h-6.67ZM74.564 10.91V0h1.32v9.737h5.072v1.172h-6.392ZM86.387 10.91h-1.385L89.008 0h1.363l4.006 10.91h-1.385l-3.26-9.184h-.085l-3.26 9.183Zm.511-4.262h5.583V7.82h-5.583V6.648ZM98.326 10.91V0h3.814c.76 0 1.387.131 1.88.394.494.26.862.61 1.103 1.05.242.436.362.921.362 1.454 0 .468-.083.856-.25 1.161-.163.305-.38.547-.65.724a2.958 2.958 0 0 1-.868.395v.106c.334.021.669.139 1.007.352.337.213.619.518.846.916.228.398.341.884.341 1.46 0 .546-.124 1.038-.372 1.475-.249.437-.641.783-1.178 1.039-.536.255-1.234.383-2.093.383h-3.942Zm1.321-1.173h2.621c.863 0 1.475-.167 1.838-.5.365-.338.548-.746.548-1.226 0-.369-.094-.71-.282-1.022a2.04 2.04 0 0 0-.804-.757c-.348-.192-.76-.287-1.236-.287h-2.685v3.792Zm0-4.943h2.45c.398 0 .757-.078 1.076-.234.324-.157.579-.377.768-.66.191-.285.287-.619.287-1.002 0-.48-.167-.886-.501-1.22-.333-.337-.862-.506-1.587-.506h-2.493v3.622Z"/></svg>