<svg width="111" height="20" fill="none" xmlns="http://www.w3.org/2000/svg"><path d="M105.357 3.72c-2.366 0-3.433 1.716-3.901 2.756-.286.676-.286.858-.468.858-.286 0-.104-.572.104-1.144.286-1.249.104-2.185.104-2.185h-3.329V20h4.578v-5.046c.572.963 1.534 1.9 3.042 1.9 3.329 0 4.942-2.758 4.942-6.555-.026-4.291-2.029-6.58-5.072-6.58Zm-1.222 10.09c-1.04 0-1.82-1.326-1.82-3.147 0-1.82.754-3.147 1.82-3.147 1.248 0 1.821 1.145 1.821 3.147-.026 2.107-.495 3.147-1.821 3.147ZM14.876 3.72c-2.002 0-2.939 1.612-3.433 2.574-.286.572-.286 1.04-.572 1.04s-.104-.39-.286-1.248c-.286-1.144-1.248-2.367-3.225-2.367-2.08 0-3.043 1.82-3.433 2.757-.286.676-.286.858-.468.858-.286 0-.104-.572.104-1.144.286-1.248.104-2.185.104-2.185H.337v12.562h4.474v-6.268c0-1.248.468-2.757 1.43-2.757 1.041 0 1.249.755 1.249 2.185v6.84h4.577v-6.268c0-1.144.469-2.757 1.43-2.757 1.041 0 1.25 1.145 1.25 2.185v6.762h4.369V9.077c-.052-3.251-1.197-5.358-4.24-5.358Zm77.27 0c-2.003 0-2.94 1.612-3.434 2.574-.286.572-.286 1.04-.572 1.04s-.104-.468-.286-1.248c-.39-1.144-1.144-2.367-3.225-2.367-2.08 0-3.043 1.82-3.433 2.757-.286.676-.286.858-.468.858-.286 0-.104-.572.104-1.144.286-1.248.104-2.185.104-2.185h-3.329v12.562h4.578v-6.268c0-1.248.468-2.757 1.43-2.757 1.04 0 1.248.755 1.248 2.185v6.84h4.578v-6.268c0-1.144.468-2.757 1.43-2.757 1.04 0 1.248 1.145 1.248 2.185v6.762h4.474V9.077c-.26-3.251-1.405-5.358-4.448-5.358Zm-65.28 0c-3.511 0-6.008 1.248-6.008 1.248v3.797s2.757-1.613 5.046-1.613c1.82 0 2.002.962 1.898 1.82 0 0-.468-.103-2.08-.103-3.72 0-5.618 1.716-5.618 4.369 0 2.575 2.08 3.615 3.901 3.615 2.575 0 3.72-1.716 4.083-2.575.286-.572.286-.962.468-.962.286 0 .182.286.182.858 0 .963 0 1.717.183 2.367h3.459v-6.19c-.105-3.875-1.43-6.632-5.514-6.632Zm-1.145 9.908c-1.04.286-1.612-.104-1.612-.754 0-.962 1.04-1.43 2.47-1.43.677 0 1.25.103 1.25.103-.027.365-.963 1.795-2.108 2.081ZM39.791.208h4.578v16.359h-4.577V.208ZM49.416 10.3c0-1.144 1.04-2.184 2.938-2.184 2.081 0 3.798 1.04 4.188 1.248V4.968s-1.327-1.249-4.578-1.249c-3.433 0-6.267 2.003-6.267 6.372 0 4.37 2.574 6.762 6.267 6.762 2.861 0 4.656-1.612 4.656-1.612v-4.188c-.572.286-2.08 1.327-4.188 1.327-2.262.104-3.016-.937-3.016-2.08Zm16.358-6.58c-2.652 0-3.615 2.47-3.797 2.94-.182.467-.286.675-.468.675-.286 0-.104-.572 0-.858.182-.676.676-2.289.676-4.37 0-1.43-.182-1.898-.182-1.898h-3.9v16.359h4.577v-6.268c0-1.04.39-2.757 1.534-2.757.962 0 1.248.677 1.248 2.08v6.945h4.578V9.909c-.182-3.225-.65-6.19-4.266-6.19Zm5.618.286v12.562h4.578V4.005s-.755.468-2.29.468c-1.534-.078-2.288-.468-2.288-.468ZM73.68 3.641c1.522 0 2.757-.815 2.757-1.82C76.437.815 75.203 0 73.68 0c-1.523 0-2.757.815-2.757 1.82 0 1.006 1.234 1.821 2.757 1.821ZM33.81 4.005v12.562h4.551V4.005s-.754.468-2.288.468c0-.078-2.263-.468-2.263-.468ZM36.073 3.641c1.522 0 2.757-.815 2.757-1.82C38.83.815 37.595 0 36.073 0c-1.523 0-2.757.815-2.757 1.82 0 1.006 1.234 1.821 2.757 1.821Z" fill="#8A8A8A"/></svg>
