<svg width="93" height="20" fill="none" xmlns="http://www.w3.org/2000/svg"><path d="M7.945 4.042c-1.775 0-2.804.805-3.296 1.342-.06-.477-.373-1.089-1.596-1.089H.383V7.07h1.089c.179 0 .238.06.238.239V20h3.162v-5.101c.492.448 1.432 1.074 2.909 1.074 3.087 0 5.25-2.446 5.25-5.966.014-3.564-2.044-5.965-5.086-5.965Zm-.642 9.172c-1.7 0-2.476-1.626-2.476-3.147 0-2.386 1.298-3.236 2.521-3.236 1.491 0 2.506 1.282 2.506 3.206-.015 2.208-1.298 3.177-2.55 3.177Z" fill="#8A8A8A"/><path d="M17.296 12.722V5.996c0-1.134-.552-1.686-1.67-1.686h-2.834v2.774h1.088c.18 0 .239.06.239.239v6.696c0 1.149.537 1.686 1.67 1.686h2.834v-2.76h-1.089c-.164.015-.238-.06-.238-.223Z" fill="#8A8A8A"/><path d="M25.558 4.042c-1.775 0-2.804.805-3.31 1.342-.06-.477-.374-1.089-1.597-1.089h-2.654V7.07h1.088c.18 0 .24.06.24.239V20h3.19v-5.101c.493.448 1.447 1.074 2.909 1.074 3.087 0 5.25-2.446 5.25-5.966 0-3.564-2.058-5.965-5.116-5.965Zm-.641 9.172c-1.7 0-2.476-1.626-2.476-3.147 0-2.386 1.298-3.236 2.52-3.236 1.492 0 2.506 1.282 2.506 3.206 0 2.208-1.282 3.177-2.55 3.177ZM36.624 4.042c-3.415 0-5.786 2.46-5.786 5.965 0 3.46 2.565 5.966 6.115 5.966 2.789 0 4.489-1.655 4.563-1.715l.135-.12-1.373-2.281-.208.194c-.015.015-1.268 1.163-2.923 1.163-1.581 0-2.745-.97-3.028-2.49h7.502l.015-.21c0-.03.074-.7.074-1.029 0-3.25-2.043-5.443-5.086-5.443Zm-2.386 4.325c.343-1.119 1.208-1.76 2.386-1.76.955 0 1.686.73 1.82 1.76h-4.206ZM53.224 12.722V1.7c0-1.133-.552-1.685-1.685-1.685h-2.834v2.774h1.089c.179 0 .239.06.239.239v1.998c-.463-.418-1.373-.97-2.953-.97-3.073 0-5.22 2.462-5.22 5.966 0 3.565 2.058 5.966 5.1 5.966 1.745 0 2.76-.805 3.252-1.372.06.492.387 1.119 1.566 1.119h2.744v-2.76h-1.06c-.178-.014-.238-.09-.238-.253Zm-5.652.492c-1.507 0-2.476-1.253-2.476-3.207 0-1.894 1.014-3.161 2.52-3.161 1.715 0 2.476 1.58 2.476 3.147 0 2.386-1.297 3.221-2.52 3.221ZM61.576 4.146c-1.312 0-2.535.76-3.251 1.969V5.86c0-1.029-.567-1.566-1.686-1.566h-2.714V7.07h1.089c.179 0 .238.06.238.239v8.397h3.162V11.14c0-.597.075-1.178.224-1.715.477-1.581 1.745-2.133 2.76-2.133.357 0 .625.045.625.045l.269.045V4.236l-.194-.03c0-.015-.268-.06-.522-.06ZM66.796 12.722V5.996c0-1.134-.552-1.686-1.67-1.686H62.56v2.774h.82c.18 0 .24.06.24.239v6.696c0 1.149.536 1.686 1.67 1.686h2.833v-2.76h-1.088c-.164.015-.239-.06-.239-.223Z" fill="#8A8A8A"/><path d="M78.742 4.31h-1.685c-.984 0-1.521.343-1.834 1.178l-2.058 5.757c-.075.21-.135.448-.194.686a9.22 9.22 0 0 0-.21-.686l-2.057-5.757c-.314-.85-.82-1.178-1.835-1.178h-1.79v2.774h.463c.253 0 .328.09.388.239l3.191 8.397h3.565l3.191-8.397c.06-.15.135-.239.388-.239h.492V4.31h-.015ZM84.201 4.042c-3.415 0-5.787 2.46-5.787 5.965 0 3.46 2.566 5.966 6.115 5.966 2.79 0 4.49-1.655 4.564-1.715l.134-.12-1.372-2.281-.209.194c-.015.015-1.267 1.163-2.908 1.163-1.581 0-2.744-.97-3.028-2.49h7.502l.015-.21c0-.03.06-.7.06-1.029 0-3.25-2.044-5.443-5.086-5.443Zm-2.386 4.325c.343-1.119 1.208-1.76 2.386-1.76.955 0 1.685.73 1.82 1.76h-4.206ZM17.072 0h-2.819v2.968h2.819V0ZM66.587 0H63.77v2.968h2.818V0ZM89.227 4.31h.418v1.134h.313V4.31h.417v-.268h-1.148v.268ZM91.613 4.042l-.313.97-.328-.97h-.432v1.402h.283v-.985h.015l.343.985h.239l.343-.985v.985h.283V4.042h-.433Z" fill="#8A8A8A"/></svg>
