<svg width="83" height="20" fill="none" xmlns="http://www.w3.org/2000/svg"><path d="M1.805 18.75V1.25h7.75c1.083 0 2.067.25 2.95.75a5.38 5.38 0 0 1 2.075 1.975c.517.833.775 1.783.775 2.85A5.51 5.51 0 0 1 14.58 9.7a5.505 5.505 0 0 1-2.075 2.025c-.883.5-1.867.75-2.95.75H5.43v6.275H1.805Zm9.925 0-4.45-7.9 3.85-.625 4.95 8.55-4.35-.025Zm-6.3-9.325h3.95c.45 0 .842-.1 1.175-.3.35-.217.617-.508.8-.875.183-.383.275-.808.275-1.275 0-.5-.108-.933-.325-1.3a2.15 2.15 0 0 0-.95-.85c-.417-.217-.9-.325-1.45-.325H5.43v4.925ZM23.347 19c-1.434 0-2.692-.292-3.775-.875a6.416 6.416 0 0 1-2.5-2.4c-.584-1.017-.875-2.183-.875-3.5 0-1.033.166-1.975.5-2.825.333-.85.8-1.583 1.4-2.2a6.033 6.033 0 0 1 2.125-1.45 6.901 6.901 0 0 1 2.7-.525c.9 0 1.733.167 2.5.5.767.333 1.425.8 1.975 1.4.567.583 1 1.283 1.3 2.1.3.8.433 1.667.4 2.6l-.025 1.1H18.447l-.575-2.175h8.275l-.4.45v-.55a2.207 2.207 0 0 0-.45-1.2 2.529 2.529 0 0 0-.975-.85c-.4-.217-.85-.325-1.35-.325-.734 0-1.359.142-1.875.425-.5.283-.884.7-1.15 1.25-.267.55-.4 1.217-.4 2 0 .8.166 1.492.5 2.075.35.583.833 1.042 1.45 1.375.633.317 1.375.475 2.225.475.583 0 1.116-.092 1.6-.275.483-.183 1-.5 1.55-.95l1.7 2.375c-.483.433-1.017.8-1.6 1.1-.584.283-1.184.5-1.8.65a7.7 7.7 0 0 1-1.825.225ZM34.92 19c-1.233 0-2.333-.2-3.3-.6-.95-.417-1.717-.983-2.3-1.7l2.225-1.9c.5.55 1.067.95 1.7 1.2.633.233 1.267.35 1.9.35.25 0 .475-.025.675-.075.217-.067.4-.15.55-.25.15-.117.258-.25.325-.4a1.16 1.16 0 0 0 .125-.525c0-.367-.15-.65-.45-.85-.167-.1-.425-.208-.775-.325-.35-.133-.8-.275-1.35-.425-.85-.217-1.575-.467-2.175-.75-.583-.3-1.05-.633-1.4-1-.3-.35-.533-.725-.7-1.125a4.034 4.034 0 0 1-.225-1.375c0-.6.133-1.142.4-1.625.267-.5.633-.925 1.1-1.275a5.421 5.421 0 0 1 1.65-.8 6.28 6.28 0 0 1 1.95-.3c.683 0 1.35.083 2 .25.65.167 1.25.408 1.8.725.567.3 1.058.658 1.475 1.075l-1.9 2.1a6.122 6.122 0 0 0-1.025-.775 5.2 5.2 0 0 0-1.15-.55c-.4-.133-.758-.2-1.075-.2-.283 0-.542.025-.775.075-.217.05-.4.133-.55.25-.15.1-.267.225-.35.375-.067.15-.1.317-.1.5s.042.358.125.525c.1.167.233.308.4.425.183.1.45.217.8.35.367.133.858.283 1.475.45.8.217 1.475.458 2.025.725.567.267 1.017.575 1.35.925.283.3.492.642.625 1.025.133.383.2.808.2 1.275 0 .817-.233 1.542-.7 2.175-.45.633-1.075 1.133-1.875 1.5s-1.7.55-2.7.55ZM47.751 19c-1.433 0-2.692-.292-3.775-.875a6.416 6.416 0 0 1-2.5-2.4c-.583-1.017-.875-2.183-.875-3.5 0-1.033.167-1.975.5-2.825.334-.85.8-1.583 1.4-2.2a6.033 6.033 0 0 1 2.125-1.45 6.901 6.901 0 0 1 2.7-.525c.9 0 1.733.167 2.5.5.767.333 1.425.8 1.975 1.4.567.583 1 1.283 1.3 2.1.3.8.433 1.667.4 2.6l-.025 1.1H42.851l-.575-2.175h8.275l-.4.45v-.55a2.207 2.207 0 0 0-.45-1.2 2.53 2.53 0 0 0-.975-.85c-.4-.217-.85-.325-1.35-.325-.733 0-1.358.142-1.875.425-.5.283-.883.7-1.15 1.25-.267.55-.4 1.217-.4 2 0 .8.167 1.492.5 2.075.35.583.834 1.042 1.45 1.375.633.317 1.375.475 2.225.475.583 0 1.117-.092 1.6-.275.483-.183 1-.5 1.55-.95l1.7 2.375c-.483.433-1.017.8-1.6 1.1-.583.283-1.183.5-1.8.65a7.702 7.702 0 0 1-1.825.225ZM54.874 18.75V5.525h3.4l.1 2.7-.7.3c.184-.6.509-1.142.975-1.625.484-.5 1.059-.9 1.725-1.2a5.06 5.06 0 0 1 2.1-.45c1 0 1.834.2 2.5.6.684.4 1.192 1.008 1.525 1.825.35.8.525 1.792.525 2.975v8.1h-3.55v-7.825c0-.6-.083-1.1-.25-1.5-.166-.4-.425-.692-.775-.875-.333-.183-.75-.267-1.25-.25-.4 0-.775.067-1.125.2a2.456 2.456 0 0 0-.875.525c-.233.233-.425.5-.575.8-.133.3-.2.625-.2.975v7.95h-3.55ZM74.351 19c-1.166 0-2.208-.292-3.125-.875-.9-.6-1.616-1.408-2.15-2.425-.516-1.033-.775-2.225-.775-3.575 0-1.317.259-2.492.775-3.525.534-1.05 1.25-1.867 2.15-2.45.917-.6 1.959-.9 3.125-.9.617 0 1.209.1 1.775.3a5.2 5.2 0 0 1 1.55.775c.467.333.842.708 1.125 1.125.284.4.442.817.475 1.25l-.9.175V.25h3.575v18.5h-3.375l-.15-3.05.7.075a2.419 2.419 0 0 1-.45 1.2 4.305 4.305 0 0 1-1.075 1.05c-.433.3-.933.542-1.5.725-.55.167-1.133.25-1.75.25Zm.8-2.95c.667 0 1.25-.167 1.75-.5.5-.333.892-.792 1.175-1.375.284-.583.425-1.267.425-2.05 0-.767-.141-1.442-.425-2.025a3.393 3.393 0 0 0-1.175-1.375c-.5-.333-1.083-.5-1.75-.5-.666 0-1.25.167-1.75.5-.483.333-.866.792-1.15 1.375-.266.583-.4 1.258-.4 2.025 0 .783.134 1.467.4 2.05.284.583.667 1.042 1.15 1.375.5.333 1.084.5 1.75.5Z" fill="#8A8A8A"/></svg>
