<svg width="89" height="20" fill="none" xmlns="http://www.w3.org/2000/svg"><path d="M.071 13.906c-.07.196.027.232.054.268.223.16.445.276.668.4 1.194.633 2.325.82 3.51.82 2.405 0 3.902-1.283 3.902-3.34v-.036c0-1.907-1.684-2.601-3.27-3.1l-.204-.063c-1.194-.392-2.228-.721-2.228-1.505v-.036c0-.668.606-1.167 1.533-1.167 1.042 0 2.263.347 3.055.784 0 0 .232.151.321-.071.045-.125.446-1.203.49-1.319.045-.124-.036-.222-.116-.267-.908-.552-2.156-.927-3.447-.927h-.24C1.897 4.347.355 5.675.355 7.581v.036c0 2.004 1.702 2.664 3.279 3.118l.258.08c1.158.357 2.156.66 2.156 1.47v.036c0 .748-.65 1.3-1.693 1.3-.4 0-1.701-.008-3.1-.89-.169-.098-.267-.17-.392-.25-.071-.044-.24-.116-.312.107L.08 13.907H.071ZM35.278 13.906c-.07.196.027.232.054.268.223.16.445.276.668.4 1.194.633 2.325.82 3.51.82 2.405 0 3.902-1.283 3.902-3.34v-.036c0-1.907-1.684-2.601-3.27-3.1l-.204-.063c-1.194-.392-2.227-.721-2.227-1.505v-.036c0-.668.605-1.167 1.532-1.167 1.033 0 2.263.347 3.055.784 0 0 .232.151.321-.071.045-.125.446-1.203.49-1.319.045-.124-.035-.222-.116-.267-.908-.552-2.156-.927-3.447-.927h-.24c-2.201 0-3.742 1.328-3.742 3.234v.036c0 2.004 1.701 2.664 3.278 3.118l.258.08c1.158.357 2.156.66 2.156 1.47v.036c0 .748-.65 1.3-1.693 1.3-.4 0-1.701-.008-3.1-.89-.169-.098-.267-.17-.392-.25-.044-.027-.25-.107-.311.107l-.473 1.319h-.009ZM61.319 7.715a4.814 4.814 0 0 0-.918-1.746c-.41-.49-.926-.891-1.541-1.176-.615-.285-1.336-.428-2.147-.428-.81 0-1.541.143-2.156.428a4.311 4.311 0 0 0-1.541 1.176c-.41.49-.713 1.078-.918 1.746a7.597 7.597 0 0 0-.294 2.156c0 .775.098 1.496.294 2.156.196.668.508 1.256.918 1.746.41.49.926.882 1.541 1.167.615.276 1.336.419 2.156.419.81 0 1.541-.143 2.147-.42a4.191 4.191 0 0 0 1.541-1.166c.41-.49.713-1.078.918-1.746.196-.66.294-1.39.294-2.156a7.334 7.334 0 0 0-.294-2.156ZM59.314 9.88c0 1.167-.214 2.084-.641 2.735-.419.641-1.06.953-1.96.953-.891 0-1.532-.312-1.951-.953-.419-.65-.633-1.568-.633-2.735 0-1.167.214-2.076.633-2.717.419-.642 1.051-.945 1.95-.945.892 0 1.533.312 1.96.945.428.641.642 1.55.642 2.717Z" fill="#8A8A8A"/><path fill-rule="evenodd" clip-rule="evenodd" d="M77.8 13.247c-.063-.196-.259-.124-.259-.124a4.533 4.533 0 0 1-.935.267c-.339.053-.704.08-1.096.08-.971 0-1.746-.285-2.299-.864-.552-.57-.864-1.497-.864-2.744 0-1.14.277-1.987.775-2.646.49-.65 1.239-.98 2.228-.98.828 0 1.46.098 2.12.303 0 0 .151.071.231-.134.179-.49.303-.837.5-1.372.053-.151-.08-.222-.125-.24-.259-.107-.873-.267-1.337-.339a10.67 10.67 0 0 0-1.505-.098c-.846 0-1.595.143-2.236.428a4.499 4.499 0 0 0-1.613 1.176 5.072 5.072 0 0 0-.98 1.746c-.222.66-.33 1.39-.33 2.165 0 1.666.446 3.01 1.337 4 .89.989 2.227 1.488 3.964 1.488 1.025 0 2.085-.205 2.842-.508 0 0 .143-.072.08-.24l-.499-1.364ZM88.071 7.34c-.169-.64-.588-1.291-.873-1.585-.436-.472-.864-.802-1.291-.98a4.912 4.912 0 0 0-1.951-.392c-.847 0-1.622.143-2.246.437a4.56 4.56 0 0 0-1.567 1.193 5.054 5.054 0 0 0-.927 1.764 7.705 7.705 0 0 0-.294 2.165c0 .766.107 1.515.303 2.174.205.66.535 1.247.989 1.728.445.49 1.024.864 1.71 1.132.686.258 1.515.4 2.468.4 1.96 0 3.002-.445 3.421-.677.08-.044.142-.115.053-.32l-.445-1.248c-.071-.187-.258-.124-.258-.124-.49.178-1.176.508-2.789.508-1.051 0-1.835-.312-2.325-.802-.499-.5-.748-1.23-.784-2.263h6.788s.179 0 .197-.17c.035-.088.258-1.416-.179-2.94ZM81.32 8.758c.097-.65.276-1.185.543-1.603.419-.642 1.051-.99 1.942-.99.89 0 1.479.348 1.906.99.277.418.401.98.446 1.603h-4.838ZM33.648 7.34c-.17-.64-.588-1.291-.873-1.585-.436-.472-.864-.802-1.292-.98a4.912 4.912 0 0 0-1.95-.392c-.847 0-1.622.143-2.246.437a4.56 4.56 0 0 0-1.568 1.193 4.895 4.895 0 0 0-.917 1.764 7.705 7.705 0 0 0-.294 2.165c0 .766.107 1.515.312 2.174.204.66.534 1.247.98 1.728.445.49 1.024.864 1.71 1.132.686.258 1.514.4 2.468.4 1.96 0 3.002-.445 3.42-.677.072-.044.143-.115.054-.32l-.445-1.248c-.072-.187-.259-.124-.259-.124-.49.178-1.176.508-2.788.508-1.051 0-1.835-.312-2.325-.802-.5-.5-.749-1.23-.784-2.263h6.797s.178 0 .196-.17c.018-.088.24-1.416-.196-2.94Zm-6.753 1.417c.098-.65.268-1.185.544-1.603.419-.642 1.051-.99 1.942-.99.89 0 1.479.348 1.906.99.277.418.401.98.446 1.603h-4.838Z" fill="#8A8A8A"/><path d="M14.904 8.437a17.134 17.134 0 0 0-1.06-.027c-.579 0-1.15.071-1.675.214a4.404 4.404 0 0 0-1.416.659c-.41.294-.748.668-.99 1.122-.24.446-.364.971-.364 1.568 0 .597.107 1.123.311 1.55.205.428.508.784.891 1.06.383.277.847.482 1.381.597.535.125 1.14.188 1.8.188.695 0 1.39-.063 2.067-.17a42.274 42.274 0 0 0 1.71-.33c.232-.053.481-.124.481-.124.17-.045.152-.223.152-.223V8.303c0-1.363-.366-2.37-1.087-3.002-.713-.624-1.764-.936-3.127-.936-.508 0-1.328.072-1.826.17 0 0-1.48.285-2.094.766 0 0-.134.08-.062.267l.48 1.292c.063.169.223.116.223.116s.054-.018.116-.054c1.31-.713 2.958-.686 2.958-.686.73 0 1.3.143 1.684.437.374.285.56.712.56 1.621v.285c-.57-.089-1.104-.134-1.113-.142Zm-2.7 4.775c-.266-.214-.302-.268-.391-.401-.134-.205-.205-.508-.205-.882 0-.597.196-1.025.606-1.31 0 0 .588-.508 1.969-.49.97.01 1.844.152 1.844.152v3.091s-.864.187-1.835.25c-1.381.07-1.987-.41-1.987-.41Z" fill="#8A8A8A"/><path fill-rule="evenodd" clip-rule="evenodd" d="M69.72 4.927a.185.185 0 0 0-.107-.25c-.116-.044-.695-.16-1.14-.196-.856-.053-1.328.09-1.756.276-.418.187-.89.5-1.149.847v-.829c0-.116-.08-.205-.196-.205h-1.737c-.116 0-.196.09-.196.205v10.138c0 .116.09.205.205.205h1.79c.116 0 .205-.089.205-.205v-5.06c0-.677.08-1.354.223-1.782.143-.418.348-.757.597-.997.25-.241.526-.41.837-.508.312-.098.66-.134.918-.134.356 0 .748.09.748.09.125.008.205-.063.25-.188.116-.285.445-1.22.508-1.407ZM52.962.232a4.326 4.326 0 0 0-.668-.16A5.487 5.487 0 0 0 51.377 0c-1.23 0-2.201.347-2.878 1.033-.677.677-1.14 1.72-1.363 3.083l-.08.463h-1.541s-.188-.009-.232.196l-.258 1.417c-.018.133.035.222.222.222h1.497l-1.523 8.508c-.125.686-.259 1.247-.401 1.675-.152.419-.294.74-.473.962-.169.223-.338.383-.623.481-.232.08-.508.116-.802.116a2.82 2.82 0 0 1-.543-.063c-.16-.026-.25-.07-.366-.124 0 0-.178-.071-.249.107-.053.142-.454 1.247-.508 1.38-.044.134.018.241.107.268.196.071.348.116.624.178.383.09.695.098.997.098.624 0 1.194-.09 1.666-.258.482-.17.891-.473 1.257-.873.392-.437.65-.9.882-1.524.24-.623.436-1.39.596-2.28l1.533-8.66h2.236s.187.01.231-.196l.259-1.416c.017-.134-.036-.223-.223-.223H49.23c.008-.044.106-.81.356-1.532.107-.303.303-.552.48-.722.17-.169.357-.285.571-.356.214-.071.463-.107.73-.107.206 0 .402.027.562.053.214.045.294.072.347.09.223.07.25 0 .294-.107l.526-1.426c.044-.142-.09-.205-.134-.231ZM22.601 14.931c0 .116-.08.205-.195.205h-1.8c-.116 0-.196-.09-.196-.205V.428c0-.116.08-.205.196-.205h1.8c.115 0 .195.089.195.205V14.93Z" fill="#8A8A8A"/></svg>
