<svg width="108" height="20" fill="none" xmlns="http://www.w3.org/2000/svg"><path d="m.816 16.499 3.391-2.658c.954 1.65 2.475 2.603 4.217 2.603 1.888 0 2.896-1.229 2.896-2.567 0-1.595-1.943-2.108-4.015-2.75-2.603-.806-5.517-1.814-5.517-5.536C1.788 2.475 4.5 0 8.258 0c3.172 0 4.987 1.192 6.563 2.823l-3.061 2.31C10.953 3.94 9.817 3.3 8.295 3.3c-1.723 0-2.658.935-2.658 2.163 0 1.485 1.87 1.998 3.942 2.695 2.64.861 5.627 2.016 5.627 5.756 0 3.098-2.456 6.068-6.746 6.068C4.922 20 2.576 18.497.816 16.499ZM30.623 6.398h3.63v1.485c.862-1.1 2.163-1.76 3.685-1.76 3.135 0 5.041 2.016 5.041 5.463v8.12h-3.703v-7.625c0-1.778-.825-2.823-2.456-2.823-1.394 0-2.53.953-2.53 3.19v7.277h-3.648V6.398h-.019Zm13.181 6.673c0-4.712 3.465-6.93 6.471-6.93 1.723 0 3.098.642 3.978 1.577V.275h3.648v19.45h-3.648V18.24c-.88 1.045-2.291 1.76-4.014 1.76-2.824 0-6.435-2.255-6.435-6.93Zm10.56-.037c0-1.98-1.43-3.575-3.41-3.575-2.017 0-3.575 1.522-3.575 3.575s1.54 3.593 3.574 3.593c1.962 0 3.41-1.613 3.41-3.593Zm4.399-3.025c0-5.536 4.18-9.99 9.936-9.99 2.878 0 5.297 1.044 7.057 2.694a9.822 9.822 0 0 1 1.797 2.292l-3.245 1.98c-1.191-2.219-3.043-3.355-5.573-3.355-3.538 0-6.288 2.896-6.288 6.398 0 3.574 2.695 6.397 6.417 6.397 2.823 0 4.82-1.595 5.517-4.07h-6.104V8.782h10.1v1.485c0 5.224-3.72 9.716-9.513 9.716-6.087.018-10.101-4.602-10.101-9.973Zm20.531-3.611h3.63v2.181c.66-1.393 1.87-2.181 3.685-2.181h1.466l-1.338 3.556h-.99c-1.943 0-2.805 1.008-2.805 3.483v6.288h-3.648V6.398Zm9.716 0h3.648v13.327H89.01v-9.77h-1.32l1.32-3.557Zm1.833-2.017c1.21 0 2.182-.971 2.182-2.181S92.053.018 90.843.018 88.662.99 88.662 2.2c0 1.191.971 2.181 2.181 2.181Zm2.677 8.69c0-4.712 3.465-6.93 6.471-6.93 1.723 0 3.098.642 3.978 1.577V.275h3.648v19.45h-3.648V18.24c-.88 1.045-2.291 1.76-4.015 1.76-2.841 0-6.434-2.255-6.434-6.93Zm10.559-.037c0-1.98-1.43-3.575-3.41-3.575-2.016 0-3.574 1.522-3.574 3.575s1.54 3.593 3.574 3.593c1.962 0 3.41-1.613 3.41-3.593Zm-74.317 0c0-3.831-2.805-6.893-6.875-6.893a6.924 6.924 0 0 0-6.929 6.93c0 3.83 2.878 6.929 7.04 6.929 2.877 0 4.949-1.393 6.104-3.373l-2.896-1.723c-.605 1.173-1.797 1.906-3.19 1.906-1.925 0-3.117-.953-3.538-2.42h10.284v-1.356Zm-10.12-1.595c.569-1.246 1.724-2.108 3.282-2.108 1.54 0 2.695.715 3.172 2.108h-6.453Z" fill="#8A8A8A"/></svg>
