<svg xmlns="http://www.w3.org/2000/svg" width="24" height="25" fill="none"><path fill="#66503D" d="M4 .938h16a3.75 3.75 0 0 1 3.75 3.75v16a3.75 3.75 0 0 1-3.75 3.75H4a3.75 3.75 0 0 1-3.75-3.75v-16A3.75 3.75 0 0 1 4 .938Z"/><path stroke="#99775C" stroke-width=".5" d="M4 .938h16a3.75 3.75 0 0 1 3.75 3.75v16a3.75 3.75 0 0 1-3.75 3.75H4a3.75 3.75 0 0 1-3.75-3.75v-16A3.75 3.75 0 0 1 4 .938Z"/><path stroke="#FFC799" stroke-linecap="round" stroke-linejoin="round" stroke-width="1.333" d="m8 12.687 2.828 2.829 5.657-5.657"/></svg>
