<?xml version="1.0" standalone="no"?>
<!DOCTYPE svg PUBLIC "-//W3C//DTD SVG 20010904//EN"
 "http://www.w3.org/TR/2001/REC-SVG-20010904/DTD/svg10.dtd">
<svg version="1.0" xmlns="http://www.w3.org/2000/svg"
 width="512.000000pt" height="512.000000pt" viewBox="0 0 512.000000 512.000000"
 preserveAspectRatio="xMidYMid meet">
<metadata>
Created by potrace 1.14, written by Peter Selinger 2001-2017
</metadata>
<g transform="translate(0.000000,512.000000) scale(0.100000,-0.100000)"
fill="#000000" stroke="none">
<path d="M845 5105 c-314 -58 -608 -277 -735 -550 -53 -115 -60 -133 -82 -221
l-23 -89 0 -1685 0 -1685 23 -89 c73 -287 256 -524 514 -665 59 -32 169 -77
210 -85 13 -2 55 -11 93 -20 62 -13 268 -15 1735 -13 916 1 1679 6 1695 10
122 31 182 51 249 81 163 74 320 209 421 361 82 123 113 197 162 390 4 17 9
777 10 1690 3 1791 4 1726 -49 1880 -35 103 -102 235 -143 281 -5 7 -19 24
-30 39 -108 150 -331 295 -543 353 l-97 27 -1670 1 c-1327 2 -1684 -1 -1740
-11z m1845 -1289 c490 -51 746 -268 764 -648 6 -114 -8 -190 -49 -273 -73
-148 -190 -232 -388 -280 l-88 -21 82 -13 c153 -23 292 -85 383 -170 138 -130
193 -311 162 -536 -19 -137 -83 -272 -171 -360 -94 -94 -267 -177 -430 -205
-38 -7 -79 -15 -90 -18 -11 -3 -266 -7 -567 -9 l-548 -5 0 24 c-6 286 -3 2519
4 2521 17 6 874 0 936 -7z"/>
<path d="M2282 3351 c-13 -9 -11 -539 2 -544 25 -9 354 1 396 13 120 32 190
89 215 173 28 95 13 182 -42 247 -73 85 -168 112 -395 115 -92 1 -171 -1 -176
-4z"/>
<path d="M2279 2341 c-1 -3 -3 -138 -4 -299 l-2 -293 213 1 c224 1 302 12 379
51 102 51 149 130 148 250 -1 89 -32 162 -86 203 -30 23 -140 77 -152 75 -3 0
-24 3 -48 7 -50 8 -446 13 -448 5z"/>
</g>
</svg>
