<?xml version="1.0" standalone="no"?>
<!DOCTYPE svg PUBLIC "-//W3C//DTD SVG 20010904//EN"
 "http://www.w3.org/TR/2001/REC-SVG-20010904/DTD/svg10.dtd">
<svg version="1.0" xmlns="http://www.w3.org/2000/svg"
 width="512.000000pt" height="512.000000pt" viewBox="0 0 512.000000 512.000000"
 preserveAspectRatio="xMidYMid meet">
<metadata>
Created by potrace 1.14, written by Peter Selinger 2001-2017
</metadata>
<g transform="translate(0.000000,512.000000) scale(0.100000,-0.100000)"
fill="#000000" stroke="none">
<path d="M549 5116 c-2 -2 -17 -6 -34 -9 -112 -18 -232 -84 -325 -177 -78 -79
-124 -152 -163 -262 l-22 -63 -2 -2020 c-1 -1692 1 -2030 12 -2084 8 -35 33
-103 57 -150 80 -163 252 -297 429 -336 53 -11 399 -13 2059 -14 2223 -1 2050
-6 2208 70 161 78 299 254 337 429 11 54 13 400 14 2060 1 2223 6 2050 -70
2208 -70 145 -229 281 -379 323 -25 7 -52 15 -60 18 -17 6 -4054 13 -4061 7z
m2391 -1320 c153 -21 263 -55 361 -112 207 -122 313 -316 304 -557 -10 -254
-148 -430 -403 -512 -82 -27 -80 -39 10 -49 60 -6 169 -49 235 -93 88 -58 185
-179 219 -276 41 -113 52 -300 24 -412 -61 -243 -248 -421 -520 -498 -133 -38
-202 -41 -845 -41 l-590 -1 -2 1260 c-2 693 -1 1269 2 1280 4 20 10 20 577 19
315 0 598 -4 628 -8z"/>
<path d="M2276 3361 c-3 -6 0 -610 3 -622 0 -3 112 -5 249 -4 222 2 253 5 305
23 140 51 214 142 224 277 7 89 -13 154 -63 214 -86 100 -175 122 -491 119
-123 -1 -225 -4 -227 -7z"/>
<path d="M2283 2361 c-5 -3 -9 -144 -9 -338 l-1 -333 26 -1 c225 -5 530 3 586
16 119 27 198 85 238 173 32 72 30 198 -4 272 -50 106 -147 178 -275 205 -71
14 -541 20 -561 6z"/>
</g>
</svg>
