<?xml version="1.0" standalone="no"?>
<!DOCTYPE svg PUBLIC "-//W3C//DTD SVG 20010904//EN"
 "http://www.w3.org/TR/2001/REC-SVG-20010904/DTD/svg10.dtd">
<svg version="1.0" xmlns="http://www.w3.org/2000/svg"
 width="532.000000pt" height="532.000000pt" viewBox="0 0 532.000000 532.000000"
 preserveAspectRatio="xMidYMid meet">
<metadata>
Created by potrace 1.14, written by Peter Selinger 2001-2017
</metadata>
<g transform="translate(0.000000,532.000000) scale(0.100000,-0.100000)"
fill="#000000" stroke="none">
<path d="M495 5301 c-250 -63 -434 -256 -484 -509 -8 -36 -11 -707 -11 -2135
0 -1869 2 -2089 16 -2152 16 -70 67 -188 91 -213 7 -7 13 -16 13 -20 0 -4 24
-32 53 -63 71 -76 176 -144 272 -177 l80 -27 2105 -3 c2288 -3 2172 -5 2298
50 186 82 328 251 379 453 4 17 9 977 10 2135 3 2321 7 2168 -58 2306 -80 169
-247 312 -409 350 -19 4 -42 10 -50 13 -8 3 -964 6 -2125 7 -1986 2 -2114 2
-2180 -15z m4295 -197 c139 -41 243 -134 300 -269 l25 -60 0 -2115 0 -2115
-21 -50 c-50 -123 -137 -213 -253 -262 l-66 -28 -2080 -3 c-1368 -1 -2098 1
-2134 8 -155 29 -285 143 -338 299 l-23 66 3 2100 2 2100 29 70 c52 122 195
244 309 262 18 3 34 7 36 9 3 2 939 4 2081 4 1864 0 2082 -2 2130 -16z"/>
<path d="M1840 3900 c-5 -3 -8 -579 -7 -1280 l2 -1275 615 1 c532 1 628 3 710
18 418 75 655 337 645 713 -5 157 -44 268 -133 379 -94 117 -232 195 -375 213
-28 3 -52 11 -54 16 -1 6 23 18 55 28 256 81 400 263 407 516 8 319 -178 552
-507 635 -51 13 -122 27 -158 32 -73 8 -1187 12 -1200 4z m1074 -447 c163 -38
255 -159 244 -322 -6 -78 -32 -134 -88 -190 -34 -34 -113 -81 -137 -83 -4 0
-19 -5 -33 -11 -36 -14 -520 -17 -521 -3 -4 29 -6 593 -2 608 3 15 28 16 240
16 167 0 254 -5 297 -15z m91 -1014 c149 -53 235 -166 241 -314 7 -172 -86
-283 -268 -321 -69 -15 -141 -17 -489 -15 l-115 1 1 333 c1 182 3 335 4 339 0
4 126 6 279 4 266 -2 280 -3 347 -27z"/>
</g>
</svg>
