<?xml version="1.0" standalone="no"?>
<!DOCTYPE svg PUBLIC "-//W3C//DTD SVG 20010904//EN"
 "http://www.w3.org/TR/2001/REC-SVG-20010904/DTD/svg10.dtd">
<svg version="1.0" xmlns="http://www.w3.org/2000/svg"
 width="700.000000pt" height="700.000000pt" viewBox="0 0 700.000000 700.000000"
 preserveAspectRatio="xMidYMid meet">
<metadata>
Created by potrace 1.14, written by Peter Selinger 2001-2017
</metadata>
<g transform="translate(0.000000,700.000000) scale(0.100000,-0.100000)"
fill="#000000" stroke="none">
<path d="M3869 6776 c-2 -2 -49 -6 -104 -10 -117 -7 -167 -12 -295 -32 -52 -8
-111 -17 -130 -20 -19 -3 -66 -12 -105 -21 -38 -8 -82 -17 -96 -19 -15 -3 -78
-18 -140 -34 -63 -17 -121 -32 -130 -34 -214 -54 -611 -208 -869 -337 -731
-365 -1160 -923 -1237 -1609 -10 -86 -10 -350 0 -425 13 -101 14 -109 23 -150
4 -22 9 -42 9 -45 23 -112 99 -332 121 -351 23 -19 25 -6 9 42 -24 68 -63 225
-79 319 -88 512 13 967 302 1360 73 99 276 300 380 375 139 102 363 229 478
273 165 63 356 120 454 137 19 3 46 8 60 10 123 21 412 27 545 12 118 -14 129
-16 226 -37 221 -49 427 -123 579 -208 36 -20 77 -43 92 -52 142 -78 360 -273
451 -402 147 -209 216 -421 204 -628 -12 -199 -93 -366 -248 -515 -188 -180
-402 -299 -744 -414 -120 -40 -517 -151 -540 -151 -8 0 -11 22 -10 73 2 66 8
248 20 632 9 266 15 457 20 600 8 229 15 411 20 570 4 140 10 244 21 358 4 46
3 48 -18 41 -73 -23 -184 -136 -282 -284 -51 -77 -156 -276 -156 -294 0 -3
-13 -33 -29 -68 -16 -35 -40 -92 -54 -128 -14 -36 -31 -78 -38 -95 -7 -16 -13
-32 -14 -35 -5 -20 -19 -60 -30 -85 -31 -69 -148 -417 -201 -595 -14 -47 -35
-114 -45 -150 -11 -36 -22 -72 -24 -80 -2 -8 -22 -80 -45 -160 -23 -80 -43
-152 -45 -160 -2 -8 -47 -170 -100 -360 -53 -190 -99 -356 -101 -369 -3 -14
-7 -27 -9 -31 -2 -3 -24 -78 -49 -166 -136 -483 -135 -481 -213 -714 -58 -176
-131 -374 -168 -455 -7 -16 -34 -76 -59 -132 -91 -204 -230 -447 -357 -624
-42 -59 -81 -113 -87 -120 -145 -175 -333 -372 -442 -461 -66 -54 -207 -165
-296 -232 -43 -33 -73 -61 -67 -63 15 -5 258 86 423 159 138 61 367 177 475
242 33 20 72 41 88 47 15 6 27 15 27 20 0 5 4 9 10 9 5 0 33 14 62 31 29 18
108 60 175 95 99 51 132 64 169 64 78 0 95 -15 244 -212 66 -87 85 -94 146
-49 190 139 469 587 655 1053 36 91 134 379 144 423 2 11 14 54 25 95 11 41
23 84 25 95 14 54 73 345 79 380 3 22 8 51 10 65 2 14 7 47 11 73 4 27 8 57
10 66 2 10 6 44 9 76 4 32 8 72 11 89 9 70 16 146 21 226 3 47 7 112 9 145 2
33 4 72 4 87 1 32 -3 33 181 -34 168 -61 405 -176 530 -258 451 -296 674 -657
657 -1065 -6 -132 -8 -148 -39 -250 -83 -284 -327 -570 -678 -797 -303 -196
-707 -395 -1000 -492 -213 -70 -400 -107 -557 -110 -34 -1 -65 -4 -68 -8 -10
-10 115 -76 234 -124 99 -40 251 -85 331 -98 19 -3 62 -10 95 -16 113 -19 220
-25 450 -25 206 0 394 8 465 19 14 3 55 7 92 11 37 3 77 8 90 10 13 2 50 7 83
11 33 4 67 8 75 9 20 2 124 18 130 20 3 1 25 5 50 9 310 52 639 134 933 231
810 267 1409 732 1592 1237 31 84 28 75 54 193 26 124 23 355 -7 467 -54 199
-148 356 -311 518 -197 196 -406 312 -791 439 -121 41 -394 118 -495 141 -27
7 -57 13 -65 15 -127 32 -182 45 -202 49 -70 14 -89 19 -93 26 -3 4 50 38 117
75 352 195 678 458 908 730 23 28 51 61 63 74 39 48 157 219 157 230 0 6 4 11
8 11 15 0 150 281 181 375 53 161 66 245 65 415 -1 125 -5 171 -22 235 -51
190 -179 382 -331 498 -31 23 -58 44 -61 47 -10 12 -138 88 -210 127 -244 129
-647 253 -940 288 -30 4 -57 8 -60 10 -3 2 -41 6 -85 10 -44 4 -96 10 -115 12
-45 6 -595 14 -601 9z"/>
</g>
</svg>
